<svg xmlns="http://www.w3.org/2000/svg" viewBox="0 0 135.5018 31"><path d="M-1.0674,14.0042C2.7465,10.5044,9.93,3.5583,12.8314,4.7518c.6118.2517-5.3457,24.0767,5.6722,17.7053,8.6817-5.02,16.901-10.8244,25.6437-15.7377a5.77,5.77,0,0,1,3.6383-.7186,5.5612,5.5612,0,0,1,3.2759,1.84c.9921,1.18,2.0425,2.7159,1.84,4.2453-.6647,5.0283-6.16,6.8912-4.315,13.339a1.5483,1.5483,0,0,0,1.6083,1.0495C61.6918,23.5788,62.12,19.21,72.9866,11.5915,76.5113,9.12,81.0823,2.2756,84.22,5.2246c4.3057,4.0472-4.7422,15.825.8494,17.7242l1.0335,1.1043c11.7482,3.99,25.9381-13.595,31.5461-17.8452a1.1154,1.1154,0,0,1,1.4978.66l.9986,2.4564c.4333,4.4365-3.0495,10.7362.5464,13.3618l1.4261,2.0413a1.8327,1.8327,0,0,0,1.6714.22c16.1624-6.5846-.4577-.7729,14.4929-14.6448" fill="none" stroke="#ff4e4e" stroke-width="2"/></svg>