<svg xmlns="http://www.w3.org/2000/svg" viewBox="0 0 1280 40"><path d="M1280,0V40H1079.384c-14.0572-13.5723-28.95-27.1344-44.3369-40H1280Z" fill="#004f96"/><path d="M1079.384,40H895.8768q-11.6465-13.4032-24-25.7645Q864.5407,6.9049,856.9849,0h178.0622C1050.4344,12.8656,1065.3268,26.4277,1079.384,40Z" fill="#503e50"/><path d="M895.8768,40H720.3987c-7.3682-13.976-15.1453-27.38-23.21-40H856.9849q7.5546,6.8954,14.8919,14.2355Q884.2155,26.5652,895.8768,40Z" fill="#949a7f"/><path d="M720.3987,40H593.267q7.8924-19.9428,15.1058-40H697.189C705.2534,12.62,713.0305,26.024,720.3987,40Z" fill="#f0d185"/><path d="M608.3728,0Q601.15,20.0365,593.267,40h-163.32q25.6315-15.1295,51.9544-29.1812Q492.1715,5.333,502.5377,0H608.3728Z" fill="#f99a78"/><path d="M502.5377,0q-10.3754,5.3187-20.6358,10.8188Q455.5847,24.8766,429.9475,40h-224.85c17.2134-10.0334,32.7518-18.3837,48.1241-25.9018C263.4081,9.1165,273.5263,4.4976,284.0093,0H502.5377Z" fill="#716eb0"/><path d="M284.0093,0c-10.483,4.4976-20.6012,9.1165-30.7875,14.0982C237.85,21.6163,222.3111,29.9666,205.0977,40H0V0H284.0093Z" fill="#ff6f58"/></svg>