<svg xmlns="http://www.w3.org/2000/svg" viewBox="0 0 414 40"><path d="M414,0V40H385.1291Q370.4177,23.1622,354.9747,7.2432q-2.44-2.5137-5.02-5.0707Q348.86,1.0874,347.7422,0H414Z" fill="#004f96"/><path d="M385.1291,40H312.1562q-.5442-1.0932-1.1054-2.1831-1.2039-2.3455-2.48-4.6749A203.7,203.7,0,0,0,294.273,10.6354Q290.2581,5.1523,285.901,0h61.8412q1.1173,1.0874,2.2127,2.1725,2.5747,2.5508,5.02,5.0707Q370.4133,23.1452,385.1291,40Z" fill="#503e50"/><path d="M312.1562,40H240.6721a196.1321,196.1321,0,0,0-6.5074-19.7162c-2.0669-5.3211-4.3473-10.5358-6.7942-15.578Q226.2164,2.3278,225.0191,0H285.901q4.3522,5.1372,8.372,10.6354A203.7,203.7,0,0,1,308.5705,33.142q1.2744,2.33,2.48,4.6749Q311.6108,38.9076,312.1562,40Z" fill="#949a7f"/><path d="M240.6721,40H161.2279q3.9615-7.3213,7.5635-14.8653c3.5529-7.4031,6.8625-14.9316,9.9468-22.5239Q179.2682,1.3063,179.79,0h45.2294q1.2012,2.3223,2.3514,4.7058c2.4469,5.0422,4.7273,10.2569,6.7942,15.578A196.1321,196.1321,0,0,1,240.6721,40Z" fill="#f0d185"/><path d="M179.79,0q-.5212,1.3068-1.0515,2.6108c-3.0843,7.5923-6.3939,15.1208-9.9468,22.5239Q165.1779,32.6641,161.2279,40H65.5867Q79.6645,28.7158,94.4336,18.4461,108.3977,8.7414,122.9964,0H179.79Z" fill="#f99a78"/><path d="M39.9549,40h.74l.4549-.9922C40.75,39.3369,40.3544,39.67,39.9549,40Z" fill="#716eb0"/><path d="M122.9964,0Q108.3947,8.7323,94.4336,18.4461,79.6646,28.71,65.5867,40H40.6951l.4549-.9922c-.4005.3291-.7956.6623-1.1951.9922H0V31.9775a173.5927,173.5927,0,0,1,21.2169-16.382c6.8991-4.5273,12.9107-8.3713,18.37-11.7283C41.8115,2.4993,43.9431,1.2144,46.0012,0h76.9952Z" fill="#716eb0"/><path d="M46.0012,0c-2.0581,1.2144-4.19,2.4993-6.4143,3.8672-5.4593,3.357-11.4709,7.201-18.37,11.7283A173.5927,173.5927,0,0,0,0,31.9775V0H46.0012Z" fill="#ff6f58"/></svg>