<?xml version="1.0" encoding="UTF-8"?>
<svg width="1280px" height="792px" viewBox="0 0 1280 792" version="1.1" xmlns="http://www.w3.org/2000/svg" xmlns:xlink="http://www.w3.org/1999/xlink">
    <!-- Generator: Sketch 62 (91390) - https://sketch.com -->
    <title>Swirl</title>
    <desc>Created with Sketch.</desc>
    <defs>
        <rect id="path-1" x="0" y="0" width="3332" height="3332"></rect>
    </defs>
    <g id="Symbols" stroke="none" stroke-width="1" fill="none" fill-rule="evenodd">
        <g id="Module-/-Take-Action-/-Desktop-/-Carousel">
            <g id="Motif-Copy">
                <g id="Swirl-/-Secondary" transform="translate(-337.000000, -795.000000)">
                    <g id="Group-2">
                        <mask id="mask-2" fill="white">
                            <use xlink:href="#path-1"></use>
                        </mask>
                        <use id="Rectangle" stroke="#979797" fill="#D8D8D8" xlink:href="#path-1"></use>
                        <g id="Group" mask="url(#mask-2)">
                            <g transform="translate(-1475.971875, -1509.812500)">
                                <path d="M1608.3164,1163.89112 C1552.77512,1226.28541 1590.90985,1327.3082 1623.19779,1404.29404 C1663.23684,1499.75348 1730.58038,1581.01353 1800.07073,1657.82414 C1915.19608,1785.07836 2038.96512,1904.5372 2170.24698,2015.11595 C2232.82864,2067.82286 2297.14532,2118.54599 2357.46729,2173.81451 C2409.6138,2221.59429 2458.63519,2272.64283 2507.61478,2323.65382 C2620.14806,2440.84936 2732.67925,2558.04489 2845.21253,2675.24043 C2985.02939,2820.84934 3134.90095,2993.06933 3118.07134,3194.03437 C3128.40407,2938.72074 3226.18765,2687.7293 3391.38376,2492.49867 C3493.17878,2372.19708 3621.61773,2269.43456 3686.51135,2125.91582 C3728.06383,2034.01927 3741.03461,1929.99055 3792.28226,1843.10665 C3840.63892,1761.12693 4023.19769,1701.72188 4087.7673,1631.74082 C4132.65811,1583.08701 4192.29862,527.499043 4223.67515,469.245465 C4238.53563,441.651884 4252.10635,410.991886 4247.32357,380.029419 C4243.2557,353.699953 4226.48462,331.252529 4209.27247,310.891103 C4074.22793,151.139124 3755.62543,131.505711 3553.99408,74.9730809 C3352.36481,18.4404509 3141.19089,5.33621185 2931.7917,1.31649383 C2701.59327,-3.0995638 2470.96632,3.10419406 2242.01375,27.40607 C2016.22602,51.3721003 1780.49437,1016.17326 1608.3164,1163.89112" id="Fill-3" fill="#AFB4A0"></path>
                                <path d="M780.9375,1624.16422 C1053.10608,1806.61859 1325.27257,1989.07297 1597.44115,2171.52943 C1731.63714,2261.49179 1865.87911,2351.48537 1996.76038,2447.71464 C2224.61287,2615.24295 2442.92039,2802.08417 2685.07258,2940.44743 C2836.08669,3026.73501 2999.09106,3096.35179 3120.99793,3230.47813 C3153.41154,3098.94183 3135.22656,2951.9777 3072.19881,2836.117 C2998.44944,2700.5499 2868.51284,2608.36185 2817.06363,2459.75084 C2742.0728,2243.13246 2856.06697,1969.83503 2744.21086,1775.46104 C2707.26824,1711.27003 2650.56062,1666.55223 2599.32876,1617.07491 C2520.09317,1540.55829 2451.50606,1449.43416 2396.97829,1348.23302 C2354.68113,1269.73014 2319.05312,1182.84502 2256.16332,1125.51013 C2189.29836,1064.55251 2101.62548,1046.00372 2018.9853,1021.81888 C1906.98289,989.041511 1797.01612,942.420736 1681.85156,931.421381 C1566.68908,920.422026 1441.05786,951.415098 1363.76387,1050.38847 C1301.02663,1130.72769 1279.11939,1248.27276 1300.18646,1353.58175 C1321.25353,1458.89073 1382.5842,1550.88931 1461.3391,1609.60043" id="Fill-6" fill="#F4D7C2"></path>
                                <path d="M34.0742315,2649.80661 C449.21912,2886.63569 952.006822,2887.10261 1422.62256,2971.57023 C1678.48219,3017.49149 1929.72255,3089.80029 2187.91478,3120.03161 C2499.39143,3156.5039 2833.25022,3110.40337 3117.63986,3237.25279 C3127.20833,3241.52182 3116.18224,3258.29777 3125.11171,3252.81766 C3131.62712,3248.81961 3139.09688,3245.04043 3136.07306,3238.77446 C3068.92667,3099.59113 2972.58201,2955.8115 2836.54134,2885.44753 C2763.94664,2847.89756 2678.61137,2833.0977 2615.95268,2780.66658 C2549.09029,2724.71893 2559.11401,2614.67882 2511.24448,2541.86557 C2397.95765,2369.55764 2185.42764,2372.91992 1991.72134,2180.29658 C1868.59039,2057.85585 1771.09718,1911.75201 1644.73984,1792.63188 C1458.60354,1617.16178 1195.78995,1528.98169 940.310394,1545.64926 C684.828745,1562.31682 439.352021,1680.94085 259.61837,1862.93956 C179.472465,1944.09284 111.146196,2038.58893 70.9051373,2145.22924 C12.6547951,2299.58973 16.0774777,2469.31081 20.2707339,2634.2063" id="Fill-8" fill="#F99A78"></path>
                                <path d="M138.613701,3991.47489 C167.976494,4067.58677 241.283291,4117.24442 314.882296,4152.14577 C605.256276,4289.84961 948.317559,4268.36993 1257.30105,4180.27352 C1566.28037,4092.17921 1853.70096,3942.43436 2153.17306,3825.93825 C2290.01019,3772.70763 2432.06951,3724.99755 2548.62527,3635.57697 C2639.74009,3565.67177 2711.20389,3473.20956 2798.9771,3399.1352 C2886.75449,3325.06292 3031.41028,3275.20027 3125.16125,3254.21846 C3137.26077,3208.06894 3054.41545,3202.86219 3004.55005,3185.31738 C2954.68464,3167.77257 2896.66036,3151.24861 2843.89374,3148.28647 C2682.77825,3139.24108 2520.33112,3125.33827 2389.29434,3030.94942 C2248.27445,2929.3665 2152.49055,2756.02077 1984.93186,2710.26662 C1874.09712,2680.00303 1751.95183,2713.36055 1643.52573,2675.32971 C1575.85021,2651.58868 1519.71902,2601.92685 1452.37954,2577.23819 C1330.05892,2532.39402 1189.45021,2575.77595 1066.05259,2533.99432 C1004.15028,2513.03762 951.341918,2472.16388 894.914344,2439.14943 C756.131941,2357.94795 584.44476,2324.28082 431.502762,2373.71673 C280.078161,2422.66522 161.343358,2548.16698 93.5279959,2692.41849 C25.7147211,2836.67 3.97648612,2998.60438 0.524249848,3158.02848 C-5.71440445,3446.16959 44.7959448,3732.17069 95.1247073,4015.93136" id="Fill-10" fill="#897ED3"></path>
                                <path d="M3121.14687,3234.92385 C3016.11774,3218.54932 2895.44523,3248.34454 2807.98037,3308.86601 C2749.43366,3349.37649 2713.41774,3418.05809 2651.46485,3453.10969 C2603.55959,3480.212 2545.89411,3483.7086 2491.01191,3479.86338 C2224.89865,3461.21763 1972.67677,3287.34782 1710.42384,3336.31068 C1582.5369,3360.18777 1468.10801,3437.00027 1383.94725,3536.3956 C1353.97078,3571.79582 1326.1151,3611.23539 1285.2597,3633.12933 C1228.45462,3663.56751 1159.73104,3653.67056 1095.55528,3648.08853 C918.117271,3632.65964 737.325167,3657.29242 570.443192,3719.63629 C477.903435,3754.20777 386.719899,3802.60908 326.291979,3880.88493 C246.291546,3984.51793 231.929342,4126.64486 254.076802,4255.77278 C276.224261,4384.9007 330.739804,4505.74116 377.428424,4628.12429 C386.753231,4652.5671 383.213721,4693.72262 357.558,4688.83573 C551.862326,4675.97867 731.798197,4779.70352 915.217331,4845.22253 C1167.96628,4935.50164 1439.96276,4954.83002 1708.17597,4962.68328 C1823.44443,4966.0588 1941.83574,4966.97314 2050.09184,4927.1599 C2185.05572,4877.52695 2289.55148,4770.36394 2389.15568,4666.47835 C2448.10446,4604.99453 2507.21782,4543.31657 2558.22927,4475.07962 C2615.36976,4398.64287 2661.73547,4314.79124 2707.90952,4231.24439 C2758.32931,4140.0071 2808.91368,4048.42119 2846.49833,3951.16766 C2930.9445,3732.65409 2979.56641,3453.33096 3106.1763,3254.36496 C3110.35747,3247.79552 3127.03421,3247.23815 3118.97812,3234.92385" id="Fill-12" fill="#0073B5"></path>
                                <path d="M3114.63504,3255.62852 C3026.63621,3237.38583 2960.36858,3367.81239 2922.94495,3469.5194 C2880.75089,3584.18893 2847.28693,3703.92575 2823.15903,3826.56562 C2807.89077,3904.16748 2794.49056,3987.45858 2750.24458,4044.90604 C2701.69206,4107.94464 2627.45702,4124.99772 2558.18046,4135.95043 C2462.00318,4151.1565 2365.27843,4160.89665 2268.40115,4165.13331 C2158.6962,4169.92929 2038.66892,4172.12902 1954.89723,4261.24918 C1869.58763,4352.00347 1848.78419,4505.13061 1841.48334,4645.27019 C1837.8559,4714.89336 1832.64877,4793.8017 1789.12159,4837.13044 C1762.69729,4863.43113 1727.66199,4870.2891 1694.54907,4878.21771 C1598.57656,4901.19586 1503.43569,4941.68206 1425.28904,5015.34988 C1347.14447,5089.01562 1564.34783,6340.10176 1554.37655,6462.20318 C1543.24767,6598.45046 1595.36703,6734.47651 1673.52831,6829.95584 C1751.6896,6925.43308 1853.35192,6985.00721 1956.86139,7027.99368 C2214.96538,7135.17913 2491.04567,7148.34826 2762.8236,7155.74467 C2920.32049,7160.03142 3078.40871,7162.66108 3234.83993,7139.27178 C3309.76034,7128.07072 3387.09207,7109.3668 3447.79526,7053.07763 C3522.9476,6983.39394 3560.68676,6867.56612 3587.46629,6755.14641 C3692.63486,6313.66541 3405.28986,4702.16668 3384.40284,4242.08611 C3382.76673,4206.04527 3380.89659,4169.06318 3369.03219,4136.18418 C3352.71707,4090.96251 3319.86535,4059.438 3290.77897,4025.82645 C3133.37402,3843.94219 3067.27983,3546.78108 3126.83586,3288.73292" id="Fill-14" fill="#B2B58C"></path>
                                <path d="M3111.15513,3257.81559 C3035.98759,3346.09477 3039.51759,3463.39384 3060.78319,3577.38727 C3082.04879,3691.38279 3135.14494,3796.47208 3184.20174,3901.53841 C3207.24382,3950.89122 3230.05836,4004.74204 3219.38903,4058.15643 C3200.67647,4151.84199 3092.80789,4196.23113 3038.96023,4275.13841 C3000.57485,4331.38859 2991.80099,4402.82425 2993.7737,4470.90207 C2998.94032,4649.58832 3069.79712,4827.86528 3034.3802,5003.07675 C3020.11824,5073.63118 2897.60777,5791.31849 2993.51485,6061.50395 C3111.15513,6392.92206 3497.14652,7049.6273 3574.80864,7082.26397 C3696.76175,7133.51288 3830.65966,7148.85289 3962.78945,7155.09456 C4244.97248,7168.4257 4528.0615,7142.69684 4806.4035,7094.40484 C4918.9377,7074.88005 5039.16233,7047.05671 5114.83088,6961.4755 C5176.10594,6892.17608 5197.46131,6794.08438 5188.77721,6701.97751 C5180.09311,6609.86854 4747.41427,4825.15269 4705.63667,4742.61192 C4657.50255,4647.50637 4600.6426,4556.20763 4529.57705,4476.76994 C4329.70505,4253.34791 4035.62939,4140.93317 3800.44903,3955.06973 C3708.15545,3882.13056 3625.29331,3798.11968 3542.69836,3714.34895 C3485.97201,3656.81661 3429.24565,3599.28427 3372.5193,3541.75193 C3285.2817,3453.27227 3188.77968,3352.97543 3135.12198,3240.89062" id="Fill-16" fill="#E4CBB9"></path>
                                <path d="M6434.925,3898.14133 C6342.34324,3637.84941 6220.38874,3842.9559 6096.70804,3859.21711 C6032.90693,3867.60749 5974.88697,3899.0365 5916.35415,3925.79143 C5619.74769,4061.36266 5285.84417,4083.73772 4960.40703,4104.06996 C4885.1562,4108.77325 4808.29383,4113.32213 4735.54059,4093.50947 C4676.54495,4077.44441 4623.05317,4046.08218 4570.35153,4015.06215 C4474.55084,3958.67065 4378.64174,3902.21237 4287.32754,3838.79514 C4197.49355,3776.40454 4112.32742,3707.43058 4021.73664,3646.14172 C3768.80672,3475.0162 3479.34487,3367.39345 3193.01856,3261.36073 C3184.31244,3258.13478 3147.76174,3241.76924 3138.50731,3241.00345 C3120.10688,3239.4802 3136.99166,3253.43775 3130.93949,3279.47069 C3108.56751,3375.67533 3141.01533,3499.21499 3192.23676,3583.6447 C3243.93978,3668.87152 3340.05319,3714.38536 3416.82174,3777.92987 C3490.86756,3839.21873 3548.6561,3920.00099 3582.77176,4009.90606 C3602.03738,4060.67615 3614.29809,4115.07283 3644.71739,4160.04414 C3754.1068,4321.76726 4019.21612,4274.48812 4163.63015,4405.82555 C4242.61902,4477.66238 4272.07723,4592.0375 4350.73254,4664.24367 C4428.51848,4735.65065 4594.22248,4802.91148 4647.77472,4893.94542 C4865.63623,5264.31398 5137.01453,5168.23245 5357.52999,5115.94119 C5578.04128,5063.64785 5769.17358,4802.94069 5927.06793,4640.23894 C6005.73783,4559.17497 6070.38953,4434.42716 6149.66819,4353.96206 C6228.94476,4273.49696 6390.47708,4118.54709 6425.04305,3996.2782" id="Fill-18" fill="#706EAF"></path>
                                <path d="M6490.27338,3019.62105 C5808.69268,3346.5627 5444.33076,3337.70372 4690.37992,3389.51872 C4561.69414,3398.36101 4424.9832,3406.84878 4319.97518,3481.8727 C4116.46424,3463.68552 3926.04677,3378.51799 3734.4757,3307.36465 C3542.90464,3236.21131 3316.8133,3185.92078 3115.94062,3223.34828 C3225.90866,3351.81802 3368.85816,3479.58705 3534.57338,3512.59132 C3572.78348,3520.20112 3612.68023,3522.08844 3648.44364,3537.56663 C3756.11699,3584.16592 3779.295,3724.79381 3850.93634,3817.81097 C3930.98597,3921.74543 4068.31744,4023.23993 4197.3468,4046.27785 C4326.37616,4069.31786 4462.88928,4022.41617 4569.81092,4098.33267 C4644.20088,4151.15285 4697.56176,4228.93165 4769.43422,4285.14277 C4869.37185,4363.3032 4997.1435,4394.20534 5120.6173,4423.10129 C5267.00467,4457.361 5417.43585,4491.83968 5566.33446,4471.102 C5766.81566,4443.18205 5942.7362,4316.47659 6072.92123,4161.25058 C6203.10835,4006.02457 6241.25181,3782.96525 6387.10819,3642.40826 C6653.74805,3385.4521 6786.66713,2948.05688 6490.27338,3019.62105" id="Fill-20" fill="#E94B4C"></path>
                                <path d="M6020.56804,2635.42356 C5568.07313,2858.31247 5027.32603,2810.79027 4551.30514,2978.03029 C4451.40787,3013.12735 4354.37387,3057.69514 4251.04151,3080.88097 C3974.20369,3142.99417 3681.76187,3046.21042 3402.81416,3098.09973 C3294.42725,3118.26249 3079.40019,3210.62503 3139.30558,3243.29616 C3469.14104,3224.53153 3781.97427,3339.70748 4071.01647,3522.93873 C4136.47519,3564.43769 4236.95054,3609.11992 4307.82485,3640.55726 C4436.30474,3697.54603 4587.64489,3701.14541 4718.70424,3650.32552 C4765.26578,3632.27037 4809.22283,3607.73426 4856.60246,3591.93445 C5071.62117,3520.23399 5299.66025,3638.88241 5525.50597,3658.81422 C5873.34123,3689.51089 6226.39381,3451.05935 6326.78777,3117.62791 C6345.32808,3056.04525 6355.81283,2988.89292 6334.86838,2928.08007 C6317.24841,2876.91272 6279.1765,2835.45953 6239.06358,2799.02259 C6171.80384,2737.92262 6122.06598,2608.37621 6020.56804,2635.42356" id="Fill-22" fill="#FF6F58"></path>
                                <path d="M5773.48506,2046.05625 C5381.11877,2107.05104 4972.38143,2174.56891 4650.73288,2407.43819 C4523.57586,2499.49642 4412.34088,2616.06578 4270.85528,2684.06614 C4061.26663,2784.80092 3812.45764,2766.30531 3595.39248,2849.71206 C3412.56681,2919.96406 3288.16649,3055.19823 3145.4362,3189.32954 C3137.8135,3196.49176 3117.81906,3208.96351 3114.17897,3218.77005 C3103.50719,3247.50665 3197.34572,3202.0582 3225.61026,3190.20263 C3269.33739,3171.86367 3355.84142,3150.0637 3386.41156,3147.88099 C3519.70224,3138.35851 3546.66361,3134.54033 3679.80602,3156.34448 C3812.94842,3178.14863 3888.91851,3247.63615 4012.06369,3302.75747 C4068.44241,3327.99129 4130.76892,3354.11491 4190.07141,3336.83702 C4280.15915,3310.58599 4315.11913,3201.30417 4389.19503,3143.69937 C4484.80453,3069.3493 4623.41439,3095.51052 4735.56827,3141.21797 C4847.72424,3186.92543 4960.80955,3249.94001 5081.38391,3238.56693 C5154.36966,3231.68251 5221.62272,3197.84316 5291.40068,3175.35601 C5385.84902,3144.91918 5486.66075,3134.88288 5578.04539,3096.20815 C5740.72209,3027.36186 5856.86692,2870.89377 5902.13112,2700.12631 C5947.39323,2529.35885 5927.78306,2346.31807 5874.02948,2178.03201 C5858.10535,2128.18471 5826.54739,2046.05625 5692.41925,2058.77864" id="Fill-24" fill="#0073B5"></path>
                                <path d="M3763.07193,2332.4794 C3701.13561,2401.3116 3639.14078,2470.20626 3572.59237,2534.62131 C3511.63406,2593.62212 3446.91,2648.80945 3388.55344,2710.36439 C3253.60717,2852.70615 3154.55671,3028.55747 3102.925,3217.4625 C3218.81266,3108.97377 3348.14375,3002.23983 3504.59783,2973.81769 C3577.76452,2960.52669 3652.87678,2965.28314 3727.09253,2970.08538 C3832.77798,2976.92343 3938.4676,2983.76148 4044.15514,2990.59953 C4098.79193,2994.13617 4154.76198,2997.53542 4207.30064,2982.18988 C4325.54973,2947.64992 4397.44376,2829.01132 4503.38625,2766.31358 C4585.02273,2717.99969 4681.39621,2706.44682 4774.71028,2706.56964 C4846.00872,2706.66331 4968.0758,2742.04423 5029.47087,2698.80528 C5061.46301,2676.27406 5081.79847,2641.01387 5098.6503,2605.78282 C5115.50213,2570.55177 5130.22031,2533.66586 5154.85022,2503.31615 C5198.41755,2449.62966 5267.35874,2423.22875 5334.91024,2407.80827 C5402.46174,2392.38779 5472.48543,2385.42693 5536.8605,2359.86074 C5563.25626,2349.37781 5588.9436,2335.44776 5608.01684,2314.46733 C5641.66407,2277.45235 5650.04819,2223.98443 5648.63342,2174.0677 C5645.10382,2049.46949 5588.6991,1928.76594 5501.56654,1839.30094 C5414.43607,1749.83385 5298.15972,1690.86842 5175.93799,1664.12405 C5079.52899,1643.02913 4980.05431,1641.28267 4881.36329,1639.62364 C4738.30247,1637.21731 4595.24375,1634.81099 4452.18294,1632.40674 C4406.87276,1631.64487 4359.4352,1631.35137 4319.14253,1652.0029 C4263.25607,1680.64778 4232.61391,1742.89172 4214.72974,1800.06906 C4194.33159,1865.26887 4145.19506,1907.79384 4099.7156,1958.34129 C3987.50174,2083.05399 3875.28579,2207.7667 3763.07193,2332.4794" id="Fill-26" fill="#644364"></path>
                                <path d="M4556.37575,1420.9148 C5076.07157,1490.66862 4867.65155,1689.01932 4671.17241,1843.54335 C4594.19789,1904.08248 4456.89768,1954.9396 4387.80868,1971.70839 C4336.26506,1984.21718 4219.42092,2104.87819 4195.39114,2152.09074 C4173.85295,2194.41326 4163.87825,2226.46547 4151.03248,2272.16344 C4129.86334,2347.4707 4115.88124,2437.50228 4083.32167,2508.65385 C4039.59686,2604.2034 4022.17657,2645.02387 3927.12081,2693.47353 C3833.34109,2741.27438 3629.53103,2801.86774 3525.77035,2819.86738 C3238.88502,2869.63134 3113.76129,3217.38031 3115.96932,3214.85938 C3123.99037,3102.91736 3128.37098,2973.6696 3136.38994,2861.74346 C3139.9011,2812.77017 3143.4915,2763.33166 3157.6258,2716.30269 C3188.89474,2612.25818 3239.46466,2513.04528 3318.75771,2438.58084 C3398.04869,2364.11849 3510.90212,2307.1843 3557.55429,2209.03536 C3585.93341,2149.33488 3619.19979,1985.2561 3637.8273,1871.59634 C3647.55597,1812.24425 3673.99186,1756.91017 3714.02203,1712.0425 L3940.12921,1458.61432 C3996.65601,1395.25884 4080.56528,1363.55502 4164.83318,1373.71477 L4556.37575,1420.9148 Z" id="Fill-28" fill="#644364"></path>
                            </g>
                        </g>
                    </g>
                </g>
            </g>
        </g>
    </g>
</svg>