<?xml version="1.0" encoding="utf-8"?>
<!-- Generator: Adobe Illustrator 24.0.2, SVG Export Plug-In . SVG Version: 6.00 Build 0)  -->
<svg version="1.1" id="Layer_1" xmlns="http://www.w3.org/2000/svg" xmlns:xlink="http://www.w3.org/1999/xlink" x="0px" y="0px"
	 viewBox="0 0 1282 1282" style="enable-background:new 0 0 1282 1282;" xml:space="preserve">
<style type="text/css">
	.st0{fill:#706EAF;}
	.st1{fill-rule:evenodd;clip-rule:evenodd;fill:#E94B4C;}
	.st2{fill-rule:evenodd;clip-rule:evenodd;fill:#FF6F58;}
	.st3{fill-rule:evenodd;clip-rule:evenodd;fill:#0073B5;}
	.st4{fill:#004F96;}
	.st5{fill-rule:evenodd;clip-rule:evenodd;fill:#503E50;}
	.st6{fill-rule:evenodd;clip-rule:evenodd;fill:#949A7F;}
	.st7{fill-rule:evenodd;clip-rule:evenodd;fill:#F0D185;}
	.st8{fill-rule:evenodd;clip-rule:evenodd;fill:#F99A78;}
	.st9{fill-rule:evenodd;clip-rule:evenodd;fill:#716EB0;}
	.st10{fill-rule:evenodd;clip-rule:evenodd;fill:#B2B58C;}
	.st11{fill-rule:evenodd;clip-rule:evenodd;fill:#F0AA94;}
	.st12{fill:#E4CBB9;}
</style>
<g>
	<path class="st0" d="M625.774,639.105c-0.181,2.963-0.335,5.928-0.455,8.895C625.568,645.018,625.711,642.054,625.774,639.105z"/>
	<path class="st0" d="M73.204,1c13.491,20.16,29.489,38.83,45.8,56.859c44.226,48.885,91.772,94.776,142.205,137.255
		c24.041,20.247,48.748,39.733,71.921,60.965c20.032,18.355,38.864,37.965,57.68,57.561c43.23,45.021,86.459,90.042,129.689,135.063
		c51.636,53.776,106.832,117.001,105.275,190.402c5.813-94.998,42.998-187.872,104.539-260.602
		c39.105-46.214,88.445-85.691,113.374-140.824c15.963-35.302,20.945-75.265,40.632-108.642
		c18.576-31.493,88.707-54.313,113.512-81.197c3.258-3.532,6.719-20.88,10.271-46.839H73.204z"/>
</g>
<path class="st1" d="M1,223.919c15.554,10.427,31.109,20.854,46.663,31.282c51.552,34.559,103.121,69.131,153.4,106.098
	c87.53,64.357,171.394,136.132,264.418,189.285C523.493,583.731,586.112,610.475,632.943,662
	c12.452-50.53,5.466-106.987-18.746-151.495c-28.331-52.079-78.247-87.493-98.011-144.582
	c-28.808-83.215,14.983-188.203-27.987-262.872c-14.192-24.659-35.976-41.838-55.657-60.844C419.361,29.477,406.95,15.692,395.41,1
	H1V223.919z"/>
<path class="st2" d="M523.668,529.455c-27.887-14.425-60.669-20.11-84.74-40.252c-25.685-21.493-21.835-63.765-40.224-91.736
	c-43.52-66.193-125.164-64.901-199.577-138.898c-47.301-47.036-84.754-103.162-133.294-148.923
	C46.218,91.155,24.382,75.194,1,61.888v504.477c91.24,17.607,181.212,42.401,273.495,53.207
	c119.655,14.011,247.908-3.699,357.157,45.031c3.676,1.64-0.56,8.084,2.87,5.979c2.503-1.536,5.372-2.988,4.211-5.395
	C612.939,611.719,575.928,556.486,523.668,529.455z"/>
<path class="st3" d="M588.209,644.651c-19.156-6.74-41.446-13.088-61.717-14.226c-61.893-3.475-124.298-8.816-174.636-45.075
	c-54.173-39.023-90.969-105.615-155.337-123.192c-42.578-11.626-89.5,1.189-131.152-13.421C42.462,440.703,22.998,424.941,1,414.818
	v584.16c87.824-32.775,172.649-74.192,260.149-108.23c52.567-20.449,107.139-38.777,151.914-73.128
	c35.002-26.854,62.455-62.374,96.174-90.83c33.72-28.455,89.29-47.61,125.305-55.67C639.19,653.391,607.365,651.391,588.209,644.651
	z"/>
<path class="st4" d="M512.696,692.113c-22.491,15.562-36.327,41.947-60.126,55.412c-18.403,10.411-40.555,11.755-61.639,10.277
	c-102.228-7.163-199.12-73.956-299.866-55.146C58.054,708.819,27.384,724.174,1,745.163V1281h278.828
	c26.009-19.662,49.322-43.729,71.975-67.355c22.645-23.619,45.354-47.313,64.95-73.527c21.951-29.363,39.762-61.575,57.5-93.67
	c19.369-35.049,38.801-70.232,53.239-107.592c32.44-83.943,51.119-191.246,99.756-267.679c1.606-2.524,8.013-2.738,4.918-7.468H633
	C592.653,657.417,546.296,668.863,512.696,692.113z"/>
<path class="st5" d="M637.498,665.662c-33.805-7.008-59.262,43.096-73.638,82.167c-16.209,44.051-29.064,90.048-38.333,137.161
	c-5.865,29.811-11.013,61.808-28.01,83.876c-18.652,24.216-47.169,30.767-73.782,34.975c-36.947,5.842-74.104,9.583-111.32,11.211
	c-42.144,1.842-88.253,2.687-120.434,36.923c-32.772,34.864-40.764,93.688-43.568,147.523c-1.393,26.746-3.394,57.059-20.115,73.704
	c-3.329,3.314-7.019,5.814-10.917,7.799h649.454c-12.945-100.77-23.431-186.325-25.703-236.387
	c-0.629-13.845-1.347-28.052-5.905-40.683c-6.268-17.372-18.888-29.482-30.061-42.394c-60.468-69.872-85.858-184.027-62.979-283.157
	L637.498,665.662z"/>
<path class="st6" d="M1241.688,1242.892c-18.491-36.535-40.334-71.608-67.634-102.124
	c-76.781-85.828-189.752-129.013-280.097-200.413c-35.455-28.02-67.287-60.293-99.016-92.474
	c-21.792-22.101-43.583-44.203-65.375-66.304c-33.513-33.99-70.584-72.519-91.197-115.577l-9.207,6.502
	c-28.876,33.913-27.52,78.974-19.351,122.765c8.169,43.792,28.566,84.162,47.412,124.524c8.852,18.959,17.616,39.646,13.517,60.165
	c-7.188,35.99-48.627,53.042-69.312,83.354c-14.746,21.609-18.116,49.051-17.359,75.203c1.379,47.686,14.932,95.295,18.521,142.487
	h651.017C1247.795,1260.221,1243.635,1246.74,1241.688,1242.892z"/>
<path class="st7" d="M1281,998.311c-9.392-0.813-18.693-2.288-27.825-4.775c-22.663-6.171-43.213-18.219-63.458-30.136
	c-36.802-21.663-73.646-43.352-108.725-67.714c-34.51-23.968-67.227-50.464-102.028-74.009
	C881.801,755.94,770.603,714.597,660.61,673.864c-3.344-1.239-17.385-7.526-20.941-7.82c-7.069-0.585-0.582,4.777-2.907,14.777
	c-8.594,36.957,3.871,84.416,23.548,116.85c19.862,32.74,56.784,50.224,86.275,74.635c28.445,23.544,50.645,54.577,63.75,89.115
	c7.401,19.504,12.111,40.4,23.797,57.676c42.022,62.127,143.865,43.964,199.342,94.418c30.344,27.596,41.66,71.534,71.876,99.272
	c23.888,21.929,69.357,42.841,97.148,68.214H1281V998.311z"/>
<path class="st8" d="M1281,720.084c-14.666,0.954-29.694,1.948-45.173,3.012c-49.435,3.397-101.953,6.657-142.292,35.478
	c-78.179-6.987-151.329-39.704-224.922-67.038C795.02,664.202,708.166,644.883,631,659.261
	c42.245,49.352,97.159,98.435,160.819,111.114c14.678,2.923,30.005,3.648,43.744,9.594c41.363,17.901,50.267,71.924,77.788,107.657
	c30.751,39.927,83.508,78.916,133.075,87.766c49.567,8.851,102.009-9.167,143.083,19.997c28.577,20.291,49.076,50.17,76.686,71.764
	c4.777,3.736,9.72,7.19,14.804,10.398V720.084z"/>
<path class="st9" d="M1281,537.104c-34.45,7.336-68.435,16.266-101.599,27.917c-38.376,13.483-75.652,30.604-115.347,39.51
	c-106.348,23.861-218.691-13.319-325.85,6.615c-41.637,7.746-124.241,43.227-101.228,55.778
	c126.708-7.208,246.884,37.037,357.92,107.426c25.146,15.942,63.744,33.107,90.971,45.184
	c49.356,21.892,107.494,23.275,157.841,3.752c12.658-4.908,24.816-11.059,37.292-16.389V537.104z"/>
<path class="st10" d="M1281,308.215c-20.854,11.134-41.04,23.592-60.404,37.611c-48.848,35.365-91.579,80.145-145.931,106.268
	c-80.514,38.698-176.095,31.592-259.481,63.633c-70.233,26.988-118.022,78.938-172.852,130.465
	c-2.928,2.751-10.609,7.542-12.008,11.31c-4.1,11.039,31.949-6.42,42.807-10.974c16.798-7.045,50.029-15.42,61.772-16.258
	c51.204-3.658,61.562-5.125,112.709,3.251c51.147,8.376,80.331,35.07,127.638,56.245c21.658,9.694,45.601,19.729,68.382,13.092
	c34.608-10.084,48.038-52.065,76.494-74.195c36.729-28.562,89.976-18.512,133.061-0.953c9.246,3.768,18.51,7.843,27.814,11.875
	V308.215z"/>
<path class="st11" d="M1281,51.326c-44.226-0.744-88.452-1.488-132.678-2.231c-17.406-0.293-35.629-0.405-51.108,7.528
	c-21.469,11.004-33.24,34.915-40.111,56.88c-7.836,25.047-26.712,41.383-44.183,60.801
	c-43.107,47.909-86.216,95.818-129.323,143.727c-23.793,26.442-47.609,52.908-73.173,77.654
	c-23.417,22.665-48.281,43.866-70.699,67.512C687.885,517.878,649.834,585.431,630,658c44.519-41.676,94.202-82.679,154.304-93.597
	c28.107-5.106,56.962-3.279,85.472-1.434c40.599,2.627,81.201,5.254,121.801,7.881c20.989,1.359,42.49,2.664,62.673-3.231
	c45.426-13.269,73.044-58.844,113.742-82.93c31.361-18.56,68.383-22.998,104.23-22.951c2.742,0.004,5.687,0.147,8.778,0.379V51.326z
	"/>
<g>
	<path class="st12" d="M631.011,656c0.002-0.029,0.004-0.059,0.006-0.088C631.001,655.98,630.996,656.017,631.011,656z"/>
	<path class="st12" d="M1281,1H930.067l-69.312,77.687c-15.378,17.236-25.533,38.493-29.271,61.293
		c-7.156,43.663-19.935,106.694-30.837,129.628c-17.922,37.704-61.275,59.576-91.734,88.181
		c-30.461,28.606-49.887,66.719-61.899,106.688c-5.43,18.066-6.809,37.058-8.158,55.872c-3.078,42.968-4.761,92.58-7.839,135.563
		c0.892-3.705,49.187-132.875,157.421-151.65c39.86-6.915,118.154-30.192,154.18-48.555c36.516-18.612,43.208-34.294,60.005-70.999
		c12.508-27.333,17.879-61.919,26.011-90.849c4.935-17.555,8.767-29.868,17.041-46.126c9.231-18.137,54.117-64.489,73.918-69.295
		c26.541-6.442,79.285-25.979,108.855-49.235c18.672-14.685,37.623-30.4,52.552-46.143V1z"/>
</g>
</svg>
